<svg width="221" height="62" viewBox="0 0 221 62" fill="none" xmlns="http://www.w3.org/2000/svg">
<g id="Group 1">
<rect id="Rectangle 4" x="0.264648" y="5.14951" width="5.59274" height="55.9274" rx="2.79637" fill="#FD7401"/>
<rect id="Rectangle 6" x="22.6356" y="5.14951" width="5.59274" height="55.9274" rx="2.79637" fill="#FD7401"/>
<rect id="Rectangle 8" x="45.0062" y="5.14951" width="5.59274" height="55.9274" rx="2.79637" fill="#FD7401"/>
<rect id="Rectangle 5" x="11.4498" y="0.954956" width="5.59274" height="55.9274" rx="2.79637" fill="#1E2772"/>
<rect id="Rectangle 7" x="33.8208" y="0.954956" width="5.59274" height="55.9274" rx="2.79637" fill="#1E2772"/>
<g id="Network">
<path d="M58.7087 45.8786C57.8978 45.8786 57.2686 45.6549 56.8212 45.2075C56.4017 44.7601 56.192 44.1169 56.192 43.278V18.3204C56.192 17.4535 56.4017 16.7964 56.8212 16.349C57.2686 15.8736 57.8419 15.6359 58.541 15.6359C59.1841 15.6359 59.6595 15.7617 59.9671 16.0134C60.3027 16.2371 60.6942 16.6286 61.1416 17.1879L77.2067 38.0348H76.1161V18.1946C76.1161 17.3836 76.3259 16.7544 76.7453 16.307C77.1927 15.8596 77.8219 15.6359 78.6329 15.6359C79.4438 15.6359 80.059 15.8596 80.4785 16.307C80.8979 16.7544 81.1077 17.3836 81.1077 18.1946V43.3619C81.1077 44.1449 80.9119 44.7601 80.5204 45.2075C80.1289 45.6549 79.5976 45.8786 78.9265 45.8786C78.2833 45.8786 77.766 45.7528 77.3745 45.5011C77.011 45.2494 76.6055 44.844 76.1581 44.2847L60.1349 23.4378H61.1835V43.278C61.1835 44.1169 60.9738 44.7601 60.5544 45.2075C60.1349 45.6549 59.5197 45.8786 58.7087 45.8786Z" fill="#1E2772"/>
<path d="M97.1748 45.9625C94.8538 45.9625 92.8544 45.5291 91.1765 44.6622C89.4987 43.7953 88.1984 42.5649 87.2756 40.971C86.3808 39.3771 85.9334 37.4895 85.9334 35.3083C85.9334 33.1831 86.3668 31.3235 87.2337 29.7296C88.1285 28.1357 89.3449 26.8913 90.8829 25.9964C92.4489 25.0736 94.2246 24.6122 96.21 24.6122C97.6641 24.6122 98.9644 24.8499 100.111 25.3253C101.285 25.8007 102.278 26.4858 103.089 27.3806C103.928 28.2755 104.557 29.3661 104.977 30.6524C105.424 31.9108 105.648 33.3369 105.648 34.9308C105.648 35.4342 105.466 35.8257 105.102 36.1053C104.767 36.357 104.278 36.4828 103.634 36.4828H90.1699V33.4627H101.957L101.285 34.0919C101.285 32.8056 101.09 31.729 100.698 30.8621C100.335 29.9952 99.7894 29.3381 99.0623 28.8907C98.3632 28.4153 97.4824 28.1776 96.4197 28.1776C95.2453 28.1776 94.2386 28.4572 93.3997 29.0165C92.5887 29.5478 91.9595 30.3168 91.5121 31.3235C91.0927 32.3022 90.8829 33.4767 90.8829 34.8469V35.1406C90.8829 37.4336 91.4142 39.1534 92.4769 40.2999C93.5674 41.4184 95.1614 41.9777 97.2586 41.9777C97.9857 41.9777 98.7966 41.8938 99.6915 41.726C100.614 41.5303 101.481 41.2087 102.292 40.7613C102.879 40.4257 103.397 40.2859 103.844 40.3418C104.292 40.3698 104.641 40.5236 104.893 40.8032C105.172 41.0828 105.34 41.4324 105.396 41.8518C105.452 42.2433 105.368 42.6488 105.144 43.0683C104.949 43.4877 104.599 43.8512 104.096 44.1588C103.117 44.774 101.985 45.2355 100.698 45.5431C99.4398 45.8227 98.2653 45.9625 97.1748 45.9625Z" fill="#1E2772"/>
<path d="M119.114 45.9625C117.296 45.9625 115.772 45.6549 114.542 45.0397C113.339 44.4245 112.445 43.5297 111.857 42.3552C111.27 41.1528 110.976 39.6707 110.976 37.909V28.9746H108.795C108.124 28.9746 107.607 28.8068 107.243 28.4712C106.88 28.1077 106.698 27.6183 106.698 27.0031C106.698 26.36 106.88 25.8706 107.243 25.535C107.607 25.1995 108.124 25.0317 108.795 25.0317H110.976V21.2146C110.976 20.3478 111.2 19.6906 111.648 19.2432C112.123 18.7958 112.78 18.5721 113.619 18.5721C114.458 18.5721 115.101 18.7958 115.549 19.2432C115.996 19.6906 116.22 20.3478 116.22 21.2146V25.0317H120.666C121.337 25.0317 121.854 25.1995 122.218 25.535C122.581 25.8706 122.763 26.36 122.763 27.0031C122.763 27.6183 122.581 28.1077 122.218 28.4712C121.854 28.8068 121.337 28.9746 120.666 28.9746H116.22V37.6153C116.22 38.9576 116.513 39.9643 117.101 40.6354C117.688 41.3066 118.639 41.6421 119.953 41.6421C120.428 41.6421 120.848 41.6002 121.211 41.5163C121.575 41.4324 121.896 41.3765 122.176 41.3485C122.511 41.3205 122.791 41.4324 123.015 41.6841C123.239 41.9078 123.35 42.3832 123.35 43.1102C123.35 43.6695 123.253 44.1728 123.057 44.6203C122.889 45.0397 122.567 45.3333 122.092 45.5011C121.729 45.613 121.253 45.7108 120.666 45.7947C120.079 45.9066 119.561 45.9625 119.114 45.9625Z" fill="#1E2772"/>
<path d="M134.072 45.8786C133.373 45.8786 132.771 45.7108 132.268 45.3753C131.765 45.0117 131.359 44.4525 131.052 43.6974L124.97 28.1776C124.718 27.5065 124.634 26.9192 124.718 26.4159C124.83 25.8846 125.095 25.4651 125.515 25.1575C125.934 24.8499 126.494 24.6961 127.193 24.6961C127.808 24.6961 128.311 24.8499 128.703 25.1575C129.094 25.4372 129.43 25.9825 129.709 26.7934L134.785 40.7613H133.82L139.063 26.4578C139.287 25.8426 139.581 25.3952 139.944 25.1156C140.336 24.8359 140.839 24.6961 141.454 24.6961C142.069 24.6961 142.573 24.8499 142.964 25.1575C143.356 25.4372 143.649 25.8706 143.845 26.4578L149.004 40.7613H148.123L153.241 26.6676C153.52 25.9125 153.87 25.3952 154.289 25.1156C154.737 24.8359 155.226 24.6961 155.758 24.6961C156.429 24.6961 156.946 24.8639 157.31 25.1995C157.673 25.535 157.883 25.9685 157.939 26.4998C157.995 27.0031 157.897 27.5624 157.645 28.1776L151.605 43.6974C151.325 44.4245 150.92 44.9698 150.389 45.3333C149.885 45.6969 149.284 45.8786 148.585 45.8786C147.886 45.8786 147.271 45.6969 146.739 45.3333C146.236 44.9698 145.844 44.4245 145.565 43.6974L140.07 29.1424H142.461L137.092 43.6555C136.812 44.4105 136.421 44.9698 135.917 45.3333C135.414 45.6969 134.799 45.8786 134.072 45.8786Z" fill="#1E2772"/>
<path d="M170.848 45.9625C168.723 45.9625 166.878 45.5291 165.312 44.6622C163.746 43.7953 162.529 42.5649 161.662 40.971C160.796 39.3491 160.362 37.4476 160.362 35.2664C160.362 33.6165 160.6 32.1484 161.075 30.8621C161.578 29.5478 162.292 28.4293 163.214 27.5065C164.137 26.5557 165.242 25.8426 166.528 25.3673C167.814 24.8639 169.255 24.6122 170.848 24.6122C172.974 24.6122 174.819 25.0457 176.385 25.9125C177.951 26.7794 179.168 28.0098 180.035 29.6038C180.901 31.1977 181.335 33.0852 181.335 35.2664C181.335 36.9163 181.083 38.3983 180.58 39.7126C180.104 41.0269 179.405 42.1594 178.483 43.1102C177.56 44.033 176.455 44.7461 175.169 45.2494C173.883 45.7248 172.442 45.9625 170.848 45.9625ZM170.848 41.9777C171.883 41.9777 172.792 41.726 173.575 41.2227C174.358 40.7193 174.959 39.9783 175.379 38.9995C175.826 37.9929 176.05 36.7485 176.05 35.2664C176.05 33.0293 175.574 31.3655 174.624 30.2749C173.673 29.1563 172.414 28.5971 170.848 28.5971C169.814 28.5971 168.905 28.8487 168.122 29.3521C167.339 29.8275 166.724 30.5685 166.276 31.5752C165.857 32.5539 165.647 33.7843 165.647 35.2664C165.647 37.4755 166.123 39.1534 167.073 40.2999C168.024 41.4184 169.282 41.9777 170.848 41.9777Z" fill="#1E2772"/>
<path d="M188.347 45.8786C187.48 45.8786 186.809 45.6549 186.334 45.2075C185.886 44.7321 185.662 44.061 185.662 43.1941V27.3387C185.662 26.4718 185.886 25.8147 186.334 25.3673C186.781 24.9198 187.41 24.6961 188.221 24.6961C189.032 24.6961 189.661 24.9198 190.109 25.3673C190.556 25.8147 190.78 26.4718 190.78 27.3387V29.9813H190.36C190.752 28.3034 191.521 27.0311 192.667 26.1642C193.814 25.2973 195.338 24.78 197.239 24.6122C197.827 24.5563 198.288 24.7101 198.624 25.0736C198.987 25.4092 199.197 25.9405 199.253 26.6676C199.309 27.3667 199.141 27.9399 198.749 28.3873C198.386 28.8068 197.827 29.0585 197.072 29.1424L196.149 29.2262C194.443 29.394 193.157 29.9253 192.29 30.8202C191.423 31.687 190.99 32.9174 190.99 34.5114V43.1941C190.99 44.061 190.766 44.7321 190.318 45.2075C189.871 45.6549 189.214 45.8786 188.347 45.8786Z" fill="#1E2772"/>
<path d="M204.689 45.8786C203.85 45.8786 203.207 45.6549 202.759 45.2075C202.312 44.7321 202.088 44.061 202.088 43.1941V18.2785C202.088 17.4116 202.312 16.7544 202.759 16.307C203.207 15.8596 203.85 15.6359 204.689 15.6359C205.528 15.6359 206.171 15.8596 206.618 16.307C207.094 16.7544 207.332 17.4116 207.332 18.2785V33.7564H207.415L214.336 26.4578C214.896 25.8986 215.385 25.4651 215.805 25.1575C216.224 24.8499 216.797 24.6961 217.524 24.6961C218.251 24.6961 218.797 24.8919 219.16 25.2834C219.552 25.6469 219.747 26.0943 219.747 26.6256C219.747 27.1569 219.496 27.6882 218.992 28.2196L211.694 35.9375V33.7564L219.705 42.3971C220.209 42.9284 220.433 43.4737 220.377 44.033C220.349 44.5643 220.125 45.0117 219.705 45.3753C219.286 45.7108 218.755 45.8786 218.112 45.8786C217.329 45.8786 216.699 45.7248 216.224 45.4172C215.777 45.1096 215.273 44.6482 214.714 44.033L207.415 36.3989H207.332V43.1941C207.332 44.9838 206.451 45.8786 204.689 45.8786Z" fill="#1E2772"/>
</g>
</g>
</svg>
